<?xml version="1.0" standalone="no"?>
<!DOCTYPE svg PUBLIC "-//W3C//DTD SVG 20010904//EN"
 "http://www.w3.org/TR/2001/REC-SVG-20010904/DTD/svg10.dtd">
<svg version="1.0" xmlns="http://www.w3.org/2000/svg"
 width="700.000000pt" height="700.000000pt" viewBox="0 0 700.000000 700.000000"
 preserveAspectRatio="xMidYMid meet">
<metadata>
Created by potrace 1.11, written by Peter Selinger 2001-2013
</metadata>
<g transform="translate(0.000000,700.000000) scale(0.100000,-0.100000)"
fill="#000000" stroke="none">
<path d="M964 6985 c-403 -73 -737 -346 -883 -720 -83 -214 -76 53 -76 -2765
0 -2400 1 -2508 18 -2585 101 -435 417 -761 857 -884 l95 -26 2525 0 2525 0
95 26 c377 105 665 359 799 704 83 214 76 -53 76 2765 0 2400 -1 2508 -18
2585 -101 435 -417 761 -857 884 l-95 26 -2495 2 c-1997 1 -2509 -1 -2566 -12z
m1308 -881 c64 -21 121 -74 149 -136 24 -53 24 -55 27 -475 l3 -423 1012 0
c1128 0 1088 2 1232 -69 137 -68 238 -169 306 -306 71 -144 69 -104 69 -1232
l0 -1012 423 -3 c420 -3 422 -3 475 -27 128 -58 187 -211 128 -336 -29 -63
-68 -102 -131 -131 -50 -24 -50 -24 -472 -24 l-423 0 0 -422 c0 -423 0 -423
-24 -473 -29 -63 -68 -102 -131 -131 -125 -59 -278 0 -336 128 -24 53 -24 55
-27 476 l-3 422 -1012 0 c-1128 0 -1088 -2 -1232 69 -137 68 -238 169 -306
306 -71 144 -69 104 -69 1232 l0 1012 -422 3 c-421 3 -423 3 -476 27 -128 58
-187 211 -128 336 29 63 68 102 131 131 50 24 50 24 473 24 l422 0 0 423 c0
422 0 422 24 472 59 126 190 183 318 139z"/>
<path d="M2450 3553 c0 -978 0 -999 20 -1031 11 -18 34 -41 52 -52 32 -20 53
-20 1031 -20 l997 0 0 998 c0 977 0 998 -20 1030 -11 18 -34 41 -52 52 -32 20
-53 20 -1030 20 l-998 0 0 -997z"/>
</g>
</svg>
